
        <svg xmlns="http://www.w3.org/2000/svg" xmlns:xlink="http://www.w3.org/1999/xlink" version="1.1" width="3163.265306122449" 
        height="1262.9824170014615" viewBox="0 0 3163.265306122449 1262.9824170014615">
			<rect fill="#fbf9fa" width="3163.265306122449" height="1262.9824170014615"/>
			<g transform="scale(8.16326530612245) translate(10, 10)">
				<defs id="SvgjsDefs2263"></defs><g id="SvgjsG2264" featureKey="symbolFeature-0" transform="matrix(0.6278115420356108,0,0,0.6278115420356108,152.0000457371865,-3.1581262907068104)" fill="#a80038"><polygon xmlns="http://www.w3.org/2000/svg" points="32.992,94.971 67.009,94.971 50,79.557 "></polygon><polygon xmlns="http://www.w3.org/2000/svg" points="65.233,60.608 34.767,60.608 50,74.415 "></polygon><rect xmlns="http://www.w3.org/2000/svg" x="39.678" y="30.496" width="20.645" height="12.844"></rect><path xmlns="http://www.w3.org/2000/svg" d="M49.815,12.138L20,24.678L6.699,57.012c0.043,0.183,0.074,0.367,0.074,0.554v35.229c0,1.196,0.979,2.177,2.177,2.177h19.127  V58.867c0-0.962,0.779-1.741,1.742-1.741h40.363c0.962,0,1.741,0.779,1.741,1.741v36.104h19.128c1.196,0,2.177-0.98,2.177-2.177  V57.493c0-0.068,0.014-0.137,0.021-0.204L79.652,24.633L49.815,12.138z M63.805,45.082c0,0.962-0.779,1.742-1.741,1.742H37.936  c-0.962,0-1.742-0.78-1.742-1.742V28.754c0-0.962,0.78-1.742,1.742-1.742h24.127c0.962,0,1.741,0.78,1.741,1.742V45.082z"></path><polygon xmlns="http://www.w3.org/2000/svg" points="68.44,91.128 68.44,62.843 52.836,76.985 "></polygon><polygon xmlns="http://www.w3.org/2000/svg" points="31.56,91.127 47.164,76.985 31.56,62.844 "></polygon><path xmlns="http://www.w3.org/2000/svg" d="M99.855,54.046L86.574,21.867c-0.645-1.563-2.308-3.231-3.87-3.88L52.706,5.517c-1.563-0.65-3.921-0.649-5.484,0.004  L17.243,18.036c-1.561,0.651-3.222,2.322-3.865,3.886L0.143,54.123c-0.399,0.973,0.065,2.086,1.038,2.485  c0.237,0.098,0.482,0.144,0.724,0.144c0.528,0,1.028-0.229,1.389-0.617c0.151-0.163,0.284-0.346,0.374-0.563l0.326-0.793  L16.902,23.37c0.261-0.636,1.174-1.553,1.809-1.818L48.69,9.036c0.632-0.264,1.92-0.264,2.554-0.002l23.895,9.933l6.211,2.601  c0.397,0.198,0.857,0.599,1.219,1.03c0.007,0.014,0.02,0.022,0.025,0.036l13.355,32.082l0.057-0.012l0.329,0.796  c0.399,0.972,1.509,1.439,2.487,1.033C99.795,56.133,100.257,55.019,99.855,54.046z"></path></g><g id="SvgjsG2265" featureKey="textGroupContainer" transform="matrix(1,0,0,1,0,87)" fill="#111111"><rect xmlns="http://www.w3.org/2000/svg" y="0" x="0" height="1" width="1" opacity="0"></rect><rect xmlns="http://www.w3.org/2000/svg" y="35.57142857142857" x="0" width="106" height="2"></rect><rect xmlns="http://www.w3.org/2000/svg" y="35.57142857142857" x="261.5" width="106" height="2"></rect></g><g id="SvgjsG2266" featureKey="nameFeature-0" transform="matrix(0.8379799078593276,0,0,0.8379799078593276,7.651782858186031,66.48055173105527)" fill="#111111"><path d="M12.6 38.76 c0.32 0.04 0.08 1.24 -0.24 1.24 l-10.36 0 c-0.32 0 -0.56 -1.2 -0.24 -1.24 c1.96 -0.28 3.36 -1 3.36 -3.6 l0 -18.32 c0 -2.6 -1.4 -3.32 -3.36 -3.6 c-0.32 -0.04 -0.08 -1.24 0.24 -1.24 l10.36 0 c0.32 0 0.56 1.2 0.24 1.24 c-1.72 0.24 -3.32 0.8 -3.32 3.6 l0 18.32 c0 2.8 1.6 3.36 3.32 3.6 z M29.2 39.08 c0.32 0 0.24 1 0 1.12 c-2.28 0.84 -5.64 0.36 -7.96 -2.12 l-11.48 -12.28 l9.12 -9.24 c2.08 -2.08 1.96 -3 -0.16 -3.32 c-0.52 -0.08 -0.28 -1.24 0.04 -1.24 l8.8 0 c0.32 0 0.56 1.2 0.16 1.24 c-1.8 0.2 -3.72 1.08 -6.36 3.76 l-7.4 7.52 l10.44 11.04 c2.52 2.6 3.92 3.52 4.8 3.52 z M62.2 38.72 c0.56 0.08 0.4 1.28 -0.08 1.28 l-9.96 0 c-0.52 0 -0.6 -1.2 -0.12 -1.28 c1.52 -0.24 3.04 -0.84 1.56 -4.32 l-0.6 -1.4 c-0.36 -0.92 -1.24 -0.96 -2.52 -0.96 l-8.32 0 c-1.2 0 -2.08 0.04 -2.44 0.96 l-0.56 1.4 c-1.48 3.56 0.04 4.04 2.04 4.32 c0.48 0.08 0.4 1.28 -0.12 1.28 l-8.44 0 c-0.52 0 -0.64 -1.2 -0.12 -1.28 c1.68 -0.24 2.64 -0.88 4.12 -4.32 l6.76 -15.4 c1.56 -3.52 2.04 -5.28 2.04 -6.8 c0 -0.24 2.84 -0.88 2.96 -0.6 l9.76 22.76 c1.48 3.48 2.44 4.12 4.04 4.36 z M50.480000000000004 30 c0.6 0 1.28 -0.08 1.04 -0.6 l-5.12 -12.16 l-5.12 12.16 c-0.24 0.52 0.4 0.6 1 0.6 l8.2 0 z M91.52000000000001 40.4 c-0.64 0 -0.96 -0.32 -1.4 -0.76 l-19.2 -20.72 l0 16.16 c0 2.68 1.56 3.16 3.64 3.68 c0.32 0.08 0.16 1.24 -0.24 1.24 l-8.96 0 c-0.36 0 -0.56 -1.12 -0.24 -1.24 c1.88 -0.52 3.32 -1 3.32 -3.68 l0 -15.84 c0 -2.56 -0.28 -4.24 -1.6 -5.72 c-0.24 -0.32 -0.6 -0.56 -0.6 -0.72 c0 -0.32 0.28 -0.8 0.72 -0.8 l2.8 0 c0.44 0 0.72 0.04 1 0.36 l18.84 20.56 l0 -16.04 c0 -2.8 -1.76 -3.16 -3.64 -3.64 c-0.32 -0.08 -0.16 -1.24 0.24 -1.24 l8.96 0 c0.36 0 0.56 1.16 0.24 1.24 c-1.8 0.48 -3.36 0.84 -3.36 3.64 l0 15.88 c0 2.52 0.08 5.4 0.48 6.84 c0.2 0.64 -0.52 0.8 -1 0.8 z M128.16 38.72 c0.56 0.08 0.4 1.28 -0.08 1.28 l-9.96 0 c-0.52 0 -0.6 -1.2 -0.12 -1.28 c1.52 -0.24 3.04 -0.84 1.56 -4.32 l-0.6 -1.4 c-0.36 -0.92 -1.24 -0.96 -2.52 -0.96 l-8.32 0 c-1.2 0 -2.08 0.04 -2.44 0.96 l-0.56 1.4 c-1.48 3.56 0.04 4.04 2.04 4.32 c0.48 0.08 0.4 1.28 -0.12 1.28 l-8.44 0 c-0.52 0 -0.64 -1.2 -0.12 -1.28 c1.68 -0.24 2.64 -0.88 4.12 -4.32 l6.76 -15.4 c1.56 -3.52 2.04 -5.28 2.04 -6.8 c0 -0.24 2.84 -0.88 2.96 -0.6 l9.76 22.76 c1.48 3.48 2.44 4.12 4.04 4.36 z M116.44 30 c0.6 0 1.28 -0.08 1.04 -0.6 l-5.12 -12.16 l-5.12 12.16 c-0.24 0.52 0.4 0.6 1 0.6 l8.2 0 z M159.59999999999997 39.08 c0.32 0 0.28 1 0 1.12 c-2.24 0.84 -5.56 0.56 -7.76 -2.28 l-6.24 -8 c-1.68 -2.16 -3.88 -2.56 -6.8 -2.6 l0 7.84 c0 2.8 1.84 3.28 4.52 3.6 c0.28 0.04 0.08 1.24 -0.24 1.24 l-11.56 0 c-0.32 0 -0.56 -1.2 -0.24 -1.24 c1.96 -0.28 3.36 -1 3.36 -3.6 l0 -18.08 c0 -2.64 -1.4 -3.4 -3.36 -3.92 c-0.32 -0.08 -0.12 -1.28 0.24 -1.24 c1.6 0.2 3.36 0.24 4.56 0.24 c2.68 0 5.24 -0.24 7.08 -0.24 c5.72 0 9.92 2.4 9.92 7.4 c0 4.76 -3.96 7.04 -7 7.24 l0 0.2 c1.48 0 2.48 0.64 4.16 2.76 l6.16 7.68 c1.12 1.44 2.2 1.88 3.2 1.88 z M140.04 25.6 c6 0 8.64 -1.04 8.64 -5.24 c0 -4.36 -2.88 -6.52 -6.56 -6.52 c-2.44 0 -3.32 0.96 -3.32 3.24 l0 8.52 l1.24 0 z M190.51999999999998 39.08 c0.32 0 0.28 1 0 1.12 c-2.24 0.84 -5.56 0.56 -7.76 -2.28 l-6.24 -8 c-1.68 -2.16 -3.88 -2.56 -6.8 -2.6 l0 7.84 c0 2.8 1.84 3.28 4.52 3.6 c0.28 0.04 0.08 1.24 -0.24 1.24 l-11.56 0 c-0.32 0 -0.56 -1.2 -0.24 -1.24 c1.96 -0.28 3.36 -1 3.36 -3.6 l0 -18.08 c0 -2.64 -1.4 -3.4 -3.36 -3.92 c-0.32 -0.08 -0.12 -1.28 0.24 -1.24 c1.6 0.2 3.36 0.24 4.56 0.24 c2.68 0 5.24 -0.24 7.08 -0.24 c5.72 0 9.92 2.4 9.92 7.4 c0 4.76 -3.96 7.04 -7 7.24 l0 0.2 c1.48 0 2.48 0.64 4.16 2.76 l6.16 7.68 c1.12 1.44 2.2 1.88 3.2 1.88 z M170.96 25.6 c6 0 8.64 -1.04 8.64 -5.24 c0 -4.36 -2.88 -6.52 -6.56 -6.52 c-2.44 0 -3.32 0.96 -3.32 3.24 l0 8.52 l1.24 0 z M222.36 38.72 c0.56 0.08 0.4 1.28 -0.08 1.28 l-9.96 0 c-0.52 0 -0.6 -1.2 -0.12 -1.28 c1.52 -0.24 3.04 -0.84 1.56 -4.32 l-0.6 -1.4 c-0.36 -0.92 -1.24 -0.96 -2.52 -0.96 l-8.32 0 c-1.2 0 -2.08 0.04 -2.44 0.96 l-0.56 1.4 c-1.48 3.56 0.04 4.04 2.04 4.32 c0.48 0.08 0.4 1.28 -0.12 1.28 l-8.44 0 c-0.52 0 -0.64 -1.2 -0.12 -1.28 c1.68 -0.24 2.64 -0.88 4.12 -4.32 l6.76 -15.4 c1.56 -3.52 2.04 -5.28 2.04 -6.8 c0 -0.24 2.84 -0.88 2.96 -0.6 l9.76 22.76 c1.48 3.48 2.44 4.12 4.04 4.36 z M210.64000000000001 30 c0.6 0 1.28 -0.08 1.04 -0.6 l-5.12 -12.16 l-5.12 12.16 c-0.24 0.52 0.4 0.6 1 0.6 l8.2 0 z M263.16 38.76 c0.32 0.04 0.08 1.24 -0.24 1.24 l-10.4 0 c-0.32 0 -0.56 -1.2 -0.24 -1.24 c2 -0.28 3.36 -1 3.36 -3.6 l0 -7.16 c-0.2 -0.68 -1.04 -0.68 -1.8 -0.68 l-11.24 0 c-0.76 0 -1.6 0 -1.8 0.68 l0 7.16 c0 2.8 1.6 3.36 3.32 3.6 c0.32 0.04 0.08 1.24 -0.24 1.24 l-10.36 0 c-0.32 0 -0.56 -1.2 -0.24 -1.24 c1.96 -0.28 3.36 -1 3.36 -3.6 l0 -18.32 c0 -2.6 -1.4 -3.32 -3.36 -3.6 c-0.32 -0.04 -0.08 -1.24 0.24 -1.24 l10.36 0 c0.32 0 0.56 1.2 0.24 1.24 c-1.72 0.24 -3.32 0.8 -3.32 3.6 l0 7.6 c0.2 0.68 1.04 0.68 1.8 0.68 l11.24 0 c0.76 0 1.6 0 1.8 -0.68 l0 -7.6 c0 -2.6 -1.36 -3.32 -3.36 -3.6 c-0.32 -0.04 -0.08 -1.24 0.24 -1.24 l10.4 0 c0.32 0 0.56 1.2 0.24 1.24 c-1.76 0.24 -3.36 0.8 -3.36 3.6 l0 18.32 c0 2.8 1.6 3.36 3.36 3.6 z M266.32 40.08 c-0.4 0.04 -0.56 -1.2 -0.24 -1.28 c2.36 -0.6 4.16 -0.96 4.16 -3.92 l0 -17.92 c0 -2.68 -1.64 -3.36 -3.4 -3.8 c-0.32 -0.08 -0.16 -1.28 0.24 -1.24 c2.92 0.24 7.2 0.24 10.16 0.24 c3.64 0 6.36 -0.16 9.52 -0.24 c0.92 0 0.92 0.64 0.72 1.52 l-1 3.8 c-0.12 0.52 -1.08 0.52 -1.24 0 c-0.56 -1.88 -1.84 -3.2 -6.92 -3.2 c-3 0 -3.92 0.72 -3.92 2.92 l0 6.64 c0 1.04 0.52 1.24 1.32 1.24 l0.76 0 c3.56 0 6.24 -0.24 8 -1.92 c0.36 -0.36 1.2 -0.28 0.88 0.48 l-2.36 5.04 c-0.28 0.68 -0.84 0.6 -1.28 0 c-0.96 -1.24 -3.04 -1.72 -5.56 -1.72 l-0.44 0 c-0.8 0 -1.32 0.2 -1.32 1.24 l0 6.92 c0 2.32 1.04 3.08 4.48 3.08 c6.48 0 8.56 -2.6 9.56 -4.28 c0.32 -0.52 1.28 -0.4 1.28 0.36 c0 2.2 -1.68 6 -4.12 6.04 c-1.92 -0.12 -4.48 -0.24 -7.92 -0.24 c-3.68 0 -7.68 -0.12 -11.36 0.24 z M293.32 40 c-0.32 0 -0.56 -1.2 -0.24 -1.24 c1.96 -0.28 3.36 -1 3.36 -3.6 l0 -18.32 c0 -2.6 -1.4 -3.32 -3.36 -3.6 c-0.32 -0.04 -0.08 -1.24 0.24 -1.24 l10.36 0 c0.32 0 0.56 1.2 0.24 1.24 c-1.72 0.24 -3.32 0.8 -3.32 3.6 l0 18.32 c0 2.8 1.6 3.36 3.32 3.6 c0.32 0.04 0.08 1.24 -0.24 1.24 l-10.36 0 z M325.2 40.64 c-9.6 0 -17.32 -4.6 -17.32 -14.04 c0 -7.76 5.32 -15.24 16.28 -15.24 c4.8 0 8.52 1.4 8.08 2.68 l-0.52 1.56 c-1.24 3.6 -3.16 -1.28 -10.28 -1.28 c-6.24 0 -9.52 3.76 -9.52 10.08 c0 9.4 6.68 13.88 12.12 13.88 c2.84 0 4.28 -1.4 4.28 -3.88 l0 -0.76 c0 -3.04 -1.24 -4.04 -4.48 -4.52 c-0.52 -0.08 -0.16 -1.44 0.72 -1.44 l9.8 0 c1.08 0 0.56 1.32 0.12 1.44 c-1.36 0.36 -2.32 1.24 -2.32 3.8 l0 1.44 c0 1.08 0.04 1.84 0.8 3.16 c-2.4 1.28 -6.76 3.12 -7.76 3.12 z M368.64 38.76 c0.32 0.04 0.08 1.24 -0.24 1.24 l-10.4 0 c-0.32 0 -0.56 -1.2 -0.24 -1.24 c2 -0.28 3.36 -1 3.36 -3.6 l0 -7.16 c-0.2 -0.68 -1.04 -0.68 -1.8 -0.68 l-11.24 0 c-0.76 0 -1.6 0 -1.8 0.68 l0 7.16 c0 2.8 1.6 3.36 3.32 3.6 c0.32 0.04 0.08 1.24 -0.24 1.24 l-10.36 0 c-0.32 0 -0.56 -1.2 -0.24 -1.24 c1.96 -0.28 3.36 -1 3.36 -3.6 l0 -18.32 c0 -2.6 -1.4 -3.32 -3.36 -3.6 c-0.32 -0.04 -0.08 -1.24 0.24 -1.24 l10.36 0 c0.32 0 0.56 1.2 0.24 1.24 c-1.72 0.24 -3.32 0.8 -3.32 3.6 l0 7.6 c0.2 0.68 1.04 0.68 1.8 0.68 l11.24 0 c0.76 0 1.6 0 1.8 -0.68 l0 -7.6 c0 -2.6 -1.36 -3.32 -3.36 -3.6 c-0.32 -0.04 -0.08 -1.24 0.24 -1.24 l10.4 0 c0.32 0 0.56 1.2 0.24 1.24 c-1.76 0.24 -3.36 0.8 -3.36 3.6 l0 18.32 c0 2.8 1.6 3.36 3.36 3.6 z M378.08 40 c-0.36 0 -0.6 -1.16 -0.28 -1.2 c2.72 -0.32 4.56 -0.92 4.56 -3.08 l0 -20.04 c0 -0.96 -0.32 -1.28 -1.28 -1.28 l-1.28 0 c-4.04 0 -5.84 0.68 -6.76 2.6 c-0.36 0.72 -1.56 0.6 -1.44 0 c0.32 -1.56 0.64 -2.64 0.88 -4.68 c0.08 -0.68 0.56 -0.64 1.24 -0.56 c1.52 0.16 3.52 0.24 10.92 0.24 s10.36 -0.08 11.88 -0.24 c0.72 -0.08 1.4 -0.12 1.16 0.56 c-0.56 1.84 -0.96 3.16 -1.2 4.68 c-0.12 0.68 -1.12 0.64 -1.24 0 c-0.4 -1.88 -2.04 -2.6 -5.6 -2.6 l-1.44 0 c-0.96 0 -1.52 0.32 -1.52 1.28 l0 20.04 c0 2.16 1.88 2.76 4.56 3.08 c0.32 0.04 0.08 1.2 -0.28 1.2 l-12.88 0 z M409.03999999999996 40.64 c-3.32 0 -8.12 -1.52 -7.68 -3.2 l0.36 -1.4 c1.08 -3.88 2.28 1.96 8.88 1.96 c3.48 0 5.44 -1.68 5.44 -4.2 c0 -2.08 -1.52 -3 -4.08 -4.52 l-4.48 -2.72 c-4.08 -2.48 -5.68 -4.24 -5.68 -7 c0 -4.76 4.56 -8.2 9.64 -8.2 c3.08 0 6.84 1.28 6.44 2.64 l-0.48 1.48 c-1.12 3.6 -2.16 -1.52 -7.64 -1.52 c-3.08 0 -4.64 1.6 -4.64 3.76 c0 1.76 1.08 2.8 3.76 4.44 l4.68 2.8 c4.08 2.44 5.72 4.28 5.72 7.04 c0 4.88 -4.88 8.64 -10.24 8.64 z"></path></g><g id="SvgjsG2267" featureKey="sloganFeature-0" transform="matrix(0.9204928725012069,0,0,0.9204928725012069,113.14060485402977,116.15820815780997)" fill="#111111"><path d="M11.86 20 l0 -6.68 l-8.3 0 l0 6.68 l-1.54 0 l0 -14.58 l1.54 0 l0 6.46 l8.3 0 l0 -6.46 l1.54 0 l0 14.58 l-1.54 0 z M33.972 12.68 c0 1.38 -0.32 2.64 -0.94 3.78 c-0.64 1.14 -1.52 2.04 -2.64 2.7 c-1.14 0.66 -2.38 1 -3.78 1 c-1.02 0 -1.98 -0.2 -2.9 -0.58 c-0.9 -0.38 -1.68 -0.9 -2.32 -1.58 c-0.64 -0.64 -1.14 -1.42 -1.52 -2.34 c-0.36 -0.92 -0.56 -1.88 -0.56 -2.9 c0 -1.38 0.32 -2.64 0.96 -3.78 c0.62 -1.14 1.5 -2.06 2.64 -2.72 c1.12 -0.66 2.38 -0.98 3.76 -0.98 c1.02 0 1.98 0.18 2.9 0.56 c0.9 0.4 1.68 0.92 2.32 1.56 c0.64 0.68 1.16 1.46 1.52 2.36 c0.38 0.92 0.56 1.88 0.56 2.92 z M32.392 12.76 c0 -1.64 -0.6 -3.16 -1.6 -4.26 s-2.5 -1.8 -4.18 -1.8 c-1.08 0 -2.06 0.28 -2.94 0.8 c-0.88 0.56 -1.56 1.28 -2.04 2.18 c-0.48 0.92 -0.72 1.92 -0.72 3 c0 1.62 0.6 3.16 1.6 4.24 c1 1.1 2.5 1.8 4.16 1.8 c1.08 0 2.06 -0.28 2.94 -0.82 c0.9 -0.52 1.58 -1.26 2.06 -2.16 s0.72 -1.9 0.72 -2.98 z M52.904 5.42 l2.2 0 l0 14.58 l-1.52 0 l0 -12.5 l0 0 l-5.42 12.5 l-1.38 0 l-5.38 -12.4 l0 0 l0 12.4 l-1.52 0 l0 -14.58 l2.18 0 l5.44 12.5 z M62.056000000000004 20 l0 -14.58 l9.12 0 l0 1.42 l-7.58 0 l0 5.04 l6.94 0 l0 1.42 l-6.94 0 l0 5.28 l7.66 0 l0 1.42 l-9.2 0 z M81.348 20.14 c-1.38 0 -2.7 -0.52 -3.56 -1.28 c-0.9 -0.78 -1.48 -1.82 -1.6 -2.84 l1.44 -0.4 c0.16 0.86 0.6 1.58 1.32 2.18 c0.7 0.6 1.5 0.9 2.4 0.9 c0.84 0 1.62 -0.2 2.24 -0.64 c0.62 -0.42 1.02 -1.14 1.02 -2.02 c0 -1.02 -0.54 -1.68 -1.22 -2.08 c-0.48 -0.28 -0.9 -0.4 -1.38 -0.5 l-1.92 -0.38 c-0.4 -0.08 -0.82 -0.22 -1.28 -0.42 c-0.46 -0.22 -0.86 -0.48 -1.2 -0.82 c-0.68 -0.66 -1.02 -1.5 -1.02 -2.52 c0 -0.8 0.22 -1.52 0.66 -2.14 c0.44 -0.64 1 -1.1 1.7 -1.44 c0.7 -0.32 1.44 -0.48 2.26 -0.48 c3.14 0 4.52 1.94 4.82 3.5 l-1.4 0.44 c-0.24 -1.04 -1.18 -2.52 -3.44 -2.52 c-1.56 -0.04 -3.08 1.06 -3.06 2.58 c0 1.12 0.7 2.02 2.12 2.3 l1.84 0.36 c1.24 0.24 2.2 0.66 2.84 1.28 c0.44 0.4 0.76 0.86 0.96 1.34 c0.2 0.5 0.3 0.94 0.3 1.34 c0.02 2.56 -2.14 4.32 -4.84 4.26 z M96.91999999999999 6.859999999999999 l0 13.14 l-1.52 0 l0 -13.14 l-4.88 0 l0 -1.44 l11.28 0 l0 1.44 l-4.88 0 z M107.11199999999998 20 l0 -14.58 l9.12 0 l0 1.42 l-7.58 0 l0 5.04 l6.94 0 l0 1.42 l-6.94 0 l0 5.28 l7.66 0 l0 1.42 l-9.2 0 z M133.10399999999998 20 l-1.6 -3.72 l-7.94 0 l-1.6 3.72 l-1.56 0 l6.28 -14.58 l1.74 0 l6.3 14.58 l-1.62 0 z M130.92399999999998 14.879999999999999 l-3.4 -7.88 l-3.38 7.88 l6.78 0 z M139.696 20 l0 -14.58 l4.34 0 c1.12 0 2.16 0.18 3.12 0.56 c0.96 0.36 1.78 0.88 2.44 1.52 c1.34 1.3 2.14 3.14 2.14 5.18 c0 1.06 -0.2 2.06 -0.6 2.98 s-0.96 1.68 -1.64 2.32 c-1.38 1.26 -3.34 2.02 -5.46 2.02 l-4.34 0 z M141.236 6.859999999999999 l0 11.7 l2.74 0 c1.22 0 2.3 -0.26 3.22 -0.76 c0.94 -0.5 1.68 -1.18 2.18 -2.06 c0.52 -0.88 0.78 -1.9 0.78 -3.02 c0 -1.66 -0.62 -3.14 -1.68 -4.2 c-1.04 -1.04 -2.66 -1.66 -4.5 -1.66 l-2.74 0 z"></path></g>
			</g>
		</svg>
	