<svg version="1.1" id="Layer_1" xmlns="http://www.w3.org/2000/svg" xmlns:xlink="http://www.w3.org/1999/xlink" x="0px" y="0px"
	 width="100%" viewBox="0 0 1154 1196" enable-background="new 0 0 1154 1196" xml:space="preserve">
<path fill="#FBF9FA" opacity="1.000000" stroke="none" 
	d="
M1155.000000,457.000000 
	C1155.000000,704.000000 1155.000000,950.500000 1155.000000,1197.000000 
	C770.333313,1197.000000 385.666656,1197.000000 1.000000,1197.000000 
	C1.000000,798.333313 1.000000,399.666656 1.000000,1.000000 
	C385.666656,1.000000 770.333313,1.000000 1155.000000,1.000000 
	C1155.000000,152.833328 1155.000000,304.666656 1155.000000,457.000000 
M578.500000,610.164246 
	C645.657837,610.163940 712.816284,610.314148 779.972961,610.031982 
	C792.861145,609.977844 801.395874,617.889038 801.358276,631.471741 
	C801.025696,751.623657 801.165161,871.776917 801.165222,991.929749 
	C801.165222,993.877136 801.165222,995.824524 801.165222,997.907532 
	C802.705627,998.020142 803.678894,998.153381 804.652100,998.153564 
	C868.311462,998.163330 931.970764,998.173523 995.630066,998.122314 
	C998.249695,998.120178 1000.970276,997.882263 1003.470520,997.156860 
	C1014.500977,993.956787 1019.831604,985.743103 1019.832275,972.291870 
	C1019.838379,853.138916 1019.844421,733.985962 1019.784668,614.833008 
	C1019.783508,612.584534 1019.336487,610.190369 1018.488525,608.112732 
	C1014.110168,597.385132 1009.497314,586.753662 1005.032104,576.061096 
	C992.260864,545.478394 979.507751,514.888123 966.772949,484.290192 
	C952.120667,449.084961 937.490356,413.870605 922.860229,378.656158 
	C909.199341,345.774597 895.579895,312.875732 881.808899,280.040405 
	C881.147034,278.462128 879.421265,276.900360 877.813660,276.212891 
	C854.011169,266.033997 830.172485,255.937988 806.287048,245.954758 
	C768.618713,230.210754 730.884094,214.625183 693.223267,198.863144 
	C655.262512,182.975571 617.352356,166.966858 579.437561,150.969788 
	C576.240051,149.620682 573.338318,149.521790 570.027161,150.941193 
	C543.671875,162.239120 517.276794,173.445450 490.842316,184.557220 
	C454.180359,199.968109 417.468353,215.259918 380.787415,230.625793 
	C347.613678,244.522491 314.389709,258.303162 281.349884,272.511719 
	C275.966125,274.826935 269.503906,275.512939 266.662476,282.871948 
	C257.398773,306.864014 247.387512,330.568298 237.598129,354.356293 
	C221.620422,393.181763 205.574768,431.979279 189.587860,470.800964 
	C173.790390,509.162537 158.235535,547.625854 142.144363,585.863647 
	C136.362274,599.603760 133.153107,613.191040 133.229706,628.458435 
	C133.801590,742.442444 133.531464,856.430664 133.575821,970.417542 
	C133.577301,974.220825 133.572601,978.164001 134.508774,981.800537 
	C137.232605,992.381165 145.853180,998.148804 158.346146,998.153198 
	C221.505554,998.175232 284.664978,998.162964 347.824371,998.162659 
	C349.094482,998.162598 350.364624,998.162598 351.999481,998.162598 
	C351.999481,995.637024 351.999481,993.670044 351.999481,991.703064 
	C351.999481,871.550171 351.999176,751.397339 351.999664,631.244446 
	C351.999725,616.909119 358.721497,610.164612 373.023499,610.164185 
	C441.182343,610.162170 509.341156,610.163818 578.500000,610.164246 
M991.149048,345.233551 
	C991.049438,344.743134 991.026855,344.220795 990.839172,343.766815 
	C978.999756,315.136108 966.870728,286.621063 955.399841,257.843689 
	C948.628967,240.857300 939.339661,225.737534 923.700867,216.097351 
	C912.780518,209.365768 900.621033,204.526840 888.737793,199.497650 
	C856.336487,185.784882 823.785645,172.425827 791.299011,158.914597 
	C763.103027,147.187866 734.916870,135.437592 706.721008,123.710640 
	C673.619690,109.943474 640.555969,96.084656 607.391602,82.471107 
	C587.838318,74.444771 567.861084,73.576202 548.137085,81.523399 
	C521.545654,92.237648 495.209808,103.585350 468.743805,114.612068 
	C429.282227,131.053223 389.796021,147.435211 350.332947,163.872757 
	C314.683472,178.721832 278.993011,193.474701 243.433868,208.537369 
	C223.637772,216.922897 209.190750,231.069946 200.726837,250.946594 
	C194.159088,266.370270 187.918228,281.933136 181.527634,297.432312 
	C164.952164,337.633118 148.349503,377.822723 131.804001,418.035858 
	C114.310226,460.553772 96.865112,503.091736 79.409462,545.625366 
	C74.808540,556.836243 70.161140,568.029175 65.693680,579.293274 
	C61.793793,589.126282 65.519325,599.267639 74.547340,604.015808 
	C83.113480,608.520935 94.111679,606.120605 99.368004,598.193359 
	C101.542358,594.914001 102.993637,591.115906 104.506592,587.443665 
	C116.647026,557.976562 128.721146,528.482117 140.820358,498.998016 
	C151.659348,472.584961 162.477859,446.163452 173.354324,419.765808 
	C184.674179,392.292053 196.080917,364.854065 207.396988,337.378723 
	C217.509354,312.825989 227.311813,288.141815 237.754669,263.731110 
	C241.289383,255.468506 248.047485,249.463104 256.161011,245.498276 
	C262.409943,242.444626 268.957672,239.998810 275.389404,237.323303 
	C310.886841,222.556732 346.405518,207.841019 381.885315,193.032242 
	C411.102020,180.837601 440.260651,168.503891 469.470886,156.293762 
	C499.441681,143.765717 529.452820,131.334305 559.427429,118.815315 
	C569.846985,114.463554 580.394409,113.928749 590.951965,117.924706 
	C599.328430,121.095108 607.542480,124.696663 615.813843,128.142303 
	C651.508606,143.011963 687.195862,157.899643 722.889954,172.771103 
	C751.229126,184.578201 779.582947,196.350388 807.914246,208.176407 
	C836.555237,220.131729 865.136108,232.232346 893.829590,244.060028 
	C903.228699,247.934418 910.126160,253.965271 913.782288,263.567352 
	C915.785950,268.829651 917.935852,274.037933 920.100403,279.237030 
	C933.023987,310.278320 945.973267,341.308868 958.909241,372.345001 
	C970.132446,399.272095 981.368713,426.193756 992.563232,453.132751 
	C1002.106873,476.098816 1011.477783,499.137451 1021.148132,522.049805 
	C1031.252319,545.990234 1041.433838,569.902039 1051.962158,593.657776 
	C1056.744263,604.447998 1067.805664,608.501831 1077.502075,603.897888 
	C1087.974731,598.925293 1091.753540,588.188293 1087.022583,577.028687 
	C1083.334595,568.329285 1079.686646,559.612549 1076.085815,550.876770 
	C1066.236206,526.981323 1056.422729,503.071075 1046.591675,479.167999 
	C1036.694824,455.104340 1026.829224,431.027710 1016.884399,406.983856 
	C1008.459167,386.613922 999.940674,366.282593 991.149048,345.233551 
M617.887146,877.601746 
	C605.944824,866.759338 593.949768,855.974182 582.083984,845.048645 
	C576.747498,840.134949 576.834595,839.974426 571.558105,844.751892 
	C550.110718,864.170349 528.692322,883.620850 507.246704,903.041321 
	C478.282959,929.269714 449.295105,955.471497 420.338898,981.708191 
	C414.635071,986.876343 409.027588,992.150757 402.923096,997.794556 
	C519.135315,997.794556 634.443298,997.794556 750.425903,997.794556 
	C745.882080,993.590637 741.917786,989.854431 737.880371,986.198853 
	C718.034973,968.230469 698.166626,950.287415 678.313293,932.327759 
	C658.336365,914.256287 638.367554,896.175842 617.887146,877.601746 
M666.893188,758.392517 
	C646.616150,776.763428 626.339172,795.134277 605.708984,813.825073 
	C659.055054,862.162659 711.943420,910.085449 765.463867,958.580933 
	C765.463867,861.473572 765.463867,765.547241 765.463867,669.045715 
	C732.447876,698.958557 699.923828,728.425781 666.893188,758.392517 
M498.245850,769.260864 
	C493.252411,764.618835 488.307617,759.923096 483.257568,755.343506 
	C455.184845,729.885986 427.094208,704.448242 398.987183,679.028564 
	C395.502045,675.876648 391.883057,672.872620 388.133240,669.633423 
	C388.133240,765.956238 388.133240,861.661011 388.133240,958.286560 
	C441.710358,909.728760 494.501953,861.882812 547.585022,813.772705 
	C531.048462,798.869934 514.897522,784.314758 498.245850,769.260864 
M616.731750,751.244324 
	C618.170654,749.859314 619.573425,748.434387 621.053711,747.095093 
	C655.322327,716.092224 689.602783,685.102417 723.868652,654.096558 
	C726.576660,651.646179 729.195435,649.097290 732.193298,646.276489 
	C628.188599,646.276489 525.009583,646.276489 420.859711,646.276489 
	C473.167908,693.680603 524.805115,740.476624 576.587463,787.404114 
	C590.034546,775.292542 603.120544,763.506165 616.731750,751.244324 
z"/>
<path fill="#9A1E3A" opacity="1.000000" stroke="none" 
	d="
M578.000000,610.164185 
	C509.341156,610.163818 441.182343,610.162170 373.023499,610.164185 
	C358.721497,610.164612 351.999725,616.909119 351.999664,631.244446 
	C351.999176,751.397339 351.999481,871.550171 351.999481,991.703064 
	C351.999481,993.670044 351.999481,995.637024 351.999481,998.162598 
	C350.364624,998.162598 349.094482,998.162598 347.824371,998.162659 
	C284.664978,998.162964 221.505554,998.175232 158.346146,998.153198 
	C145.853180,998.148804 137.232605,992.381165 134.508774,981.800537 
	C133.572601,978.164001 133.577301,974.220825 133.575821,970.417542 
	C133.531464,856.430664 133.801590,742.442444 133.229706,628.458435 
	C133.153107,613.191040 136.362274,599.603760 142.144363,585.863647 
	C158.235535,547.625854 173.790390,509.162537 189.587860,470.800964 
	C205.574768,431.979279 221.620422,393.181763 237.598129,354.356293 
	C247.387512,330.568298 257.398773,306.864014 266.662476,282.871948 
	C269.503906,275.512939 275.966125,274.826935 281.349884,272.511719 
	C314.389709,258.303162 347.613678,244.522491 380.787415,230.625793 
	C417.468353,215.259918 454.180359,199.968109 490.842316,184.557220 
	C517.276794,173.445450 543.671875,162.239120 570.027161,150.941193 
	C573.338318,149.521790 576.240051,149.620682 579.437561,150.969788 
	C617.352356,166.966858 655.262512,182.975571 693.223267,198.863144 
	C730.884094,214.625183 768.618713,230.210754 806.287048,245.954758 
	C830.172485,255.937988 854.011169,266.033997 877.813660,276.212891 
	C879.421265,276.900360 881.147034,278.462128 881.808899,280.040405 
	C895.579895,312.875732 909.199341,345.774597 922.860229,378.656158 
	C937.490356,413.870605 952.120667,449.084961 966.772949,484.290192 
	C979.507751,514.888123 992.260864,545.478394 1005.032104,576.061096 
	C1009.497314,586.753662 1014.110168,597.385132 1018.488525,608.112732 
	C1019.336487,610.190369 1019.783508,612.584534 1019.784668,614.833008 
	C1019.844421,733.985962 1019.838379,853.138916 1019.832275,972.291870 
	C1019.831604,985.743103 1014.500977,993.956787 1003.470520,997.156860 
	C1000.970276,997.882263 998.249695,998.120178 995.630066,998.122314 
	C931.970764,998.173523 868.311462,998.163330 804.652100,998.153564 
	C803.678894,998.153381 802.705627,998.020142 801.165222,997.907532 
	C801.165222,995.824524 801.165222,993.877136 801.165222,991.929749 
	C801.165161,871.776917 801.025696,751.623657 801.358276,631.471741 
	C801.395874,617.889038 792.861145,609.977844 779.972961,610.031982 
	C712.816284,610.314148 645.657837,610.163940 578.000000,610.164185 
M718.168884,377.500031 
	C718.169067,359.003723 718.214111,340.507233 718.154602,322.011139 
	C718.111328,308.580841 711.349182,301.505615 697.999390,301.492340 
	C617.348145,301.412201 536.696655,301.409332 456.045410,301.495575 
	C441.712585,301.510925 435.004913,308.518707 435.001190,322.763184 
	C434.987244,376.253052 434.990417,429.742889 435.012817,483.232758 
	C435.013794,485.554779 434.989319,487.933594 435.451111,490.188812 
	C437.460175,500.001495 444.738495,504.836975 457.294128,504.838104 
	C536.945679,504.845154 616.597229,504.843658 696.248779,504.839203 
	C711.376831,504.838348 718.158875,498.085754 718.165100,482.980255 
	C718.179504,448.153534 718.169495,413.326782 718.168884,377.500031 
z"/>
<path fill="#9A1F3B" opacity="1.000000" stroke="none" 
	d="
M991.306274,345.583862 
	C999.940674,366.282593 1008.459167,386.613922 1016.884399,406.983856 
	C1026.829224,431.027710 1036.694824,455.104340 1046.591675,479.167999 
	C1056.422729,503.071075 1066.236206,526.981323 1076.085815,550.876770 
	C1079.686646,559.612549 1083.334595,568.329285 1087.022583,577.028687 
	C1091.753540,588.188293 1087.974731,598.925293 1077.502075,603.897888 
	C1067.805664,608.501831 1056.744263,604.447998 1051.962158,593.657776 
	C1041.433838,569.902039 1031.252319,545.990234 1021.148132,522.049805 
	C1011.477783,499.137451 1002.106873,476.098816 992.563232,453.132751 
	C981.368713,426.193756 970.132446,399.272095 958.909241,372.345001 
	C945.973267,341.308868 933.023987,310.278320 920.100403,279.237030 
	C917.935852,274.037933 915.785950,268.829651 913.782288,263.567352 
	C910.126160,253.965271 903.228699,247.934418 893.829590,244.060028 
	C865.136108,232.232346 836.555237,220.131729 807.914246,208.176407 
	C779.582947,196.350388 751.229126,184.578201 722.889954,172.771103 
	C687.195862,157.899643 651.508606,143.011963 615.813843,128.142303 
	C607.542480,124.696663 599.328430,121.095108 590.951965,117.924706 
	C580.394409,113.928749 569.846985,114.463554 559.427429,118.815315 
	C529.452820,131.334305 499.441681,143.765717 469.470886,156.293762 
	C440.260651,168.503891 411.102020,180.837601 381.885315,193.032242 
	C346.405518,207.841019 310.886841,222.556732 275.389404,237.323303 
	C268.957672,239.998810 262.409943,242.444626 256.161011,245.498276 
	C248.047485,249.463104 241.289383,255.468506 237.754669,263.731110 
	C227.311813,288.141815 217.509354,312.825989 207.396988,337.378723 
	C196.080917,364.854065 184.674179,392.292053 173.354324,419.765808 
	C162.477859,446.163452 151.659348,472.584961 140.820358,498.998016 
	C128.721146,528.482117 116.647026,557.976562 104.506592,587.443665 
	C102.993637,591.115906 101.542358,594.914001 99.368004,598.193359 
	C94.111679,606.120605 83.113480,608.520935 74.547340,604.015808 
	C65.519325,599.267639 61.793793,589.126282 65.693680,579.293274 
	C70.161140,568.029175 74.808540,556.836243 79.409462,545.625366 
	C96.865112,503.091736 114.310226,460.553772 131.804001,418.035858 
	C148.349503,377.822723 164.952164,337.633118 181.527634,297.432312 
	C187.918228,281.933136 194.159088,266.370270 200.726837,250.946594 
	C209.190750,231.069946 223.637772,216.922897 243.433868,208.537369 
	C278.993011,193.474701 314.683472,178.721832 350.332947,163.872757 
	C389.796021,147.435211 429.282227,131.053223 468.743805,114.612068 
	C495.209808,103.585350 521.545654,92.237648 548.137085,81.523399 
	C567.861084,73.576202 587.838318,74.444771 607.391602,82.471107 
	C640.555969,96.084656 673.619690,109.943474 706.721008,123.710640 
	C734.916870,135.437592 763.103027,147.187866 791.299011,158.914597 
	C823.785645,172.425827 856.336487,185.784882 888.737793,199.497650 
	C900.621033,204.526840 912.780518,209.365768 923.700867,216.097351 
	C939.339661,225.737534 948.628967,240.857300 955.399841,257.843689 
	C966.870728,286.621063 978.999756,315.136108 990.839172,343.766815 
	C991.026855,344.220795 991.049438,344.743134 991.306274,345.583862 
z"/>
<path fill="#9A1E3A" opacity="1.000000" stroke="none" 
	d="
M618.141174,877.850525 
	C638.367554,896.175842 658.336365,914.256287 678.313293,932.327759 
	C698.166626,950.287415 718.034973,968.230469 737.880371,986.198853 
	C741.917786,989.854431 745.882080,993.590637 750.425903,997.794556 
	C634.443298,997.794556 519.135315,997.794556 402.923096,997.794556 
	C409.027588,992.150757 414.635071,986.876343 420.338898,981.708191 
	C449.295105,955.471497 478.282959,929.269714 507.246704,903.041321 
	C528.692322,883.620850 550.110718,864.170349 571.558105,844.751892 
	C576.834595,839.974426 576.747498,840.134949 582.083984,845.048645 
	C593.949768,855.974182 605.944824,866.759338 618.141174,877.850525 
z"/>
<path fill="#9A1F3B" opacity="1.000000" stroke="none" 
	d="
M667.146484,758.142700 
	C699.923828,728.425781 732.447876,698.958557 765.463867,669.045715 
	C765.463867,765.547241 765.463867,861.473572 765.463867,958.580933 
	C711.943420,910.085449 659.055054,862.162659 605.708984,813.825073 
	C626.339172,795.134277 646.616150,776.763428 667.146484,758.142700 
z"/>
<path fill="#9A1E3A" opacity="1.000000" stroke="none" 
	d="
M498.496216,769.510193 
	C514.897522,784.314758 531.048462,798.869934 547.585022,813.772705 
	C494.501953,861.882812 441.710358,909.728760 388.133240,958.286560 
	C388.133240,861.661011 388.133240,765.956238 388.133240,669.633423 
	C391.883057,672.872620 395.502045,675.876648 398.987183,679.028564 
	C427.094208,704.448242 455.184845,729.885986 483.257568,755.343506 
	C488.307617,759.923096 493.252411,764.618835 498.496216,769.510193 
z"/>
<path fill="#9A1E3A" opacity="1.000000" stroke="none" 
	d="
M616.469116,751.482056 
	C603.120544,763.506165 590.034546,775.292542 576.587463,787.404114 
	C524.805115,740.476624 473.167908,693.680603 420.859711,646.276489 
	C525.009583,646.276489 628.188599,646.276489 732.193298,646.276489 
	C729.195435,649.097290 726.576660,651.646179 723.868652,654.096558 
	C689.602783,685.102417 655.322327,716.092224 621.053711,747.095093 
	C619.573425,748.434387 618.170654,749.859314 616.469116,751.482056 
z"/>
<path fill="#FAF7F8" opacity="1.000000" stroke="none" 
	d="
M718.169128,378.000061 
	C718.169495,413.326782 718.179504,448.153534 718.165100,482.980255 
	C718.158875,498.085754 711.376831,504.838348 696.248779,504.839203 
	C616.597229,504.843658 536.945679,504.845154 457.294128,504.838104 
	C444.738495,504.836975 437.460175,500.001495 435.451111,490.188812 
	C434.989319,487.933594 435.013794,485.554779 435.012817,483.232758 
	C434.990417,429.742889 434.987244,376.253052 435.001190,322.763184 
	C435.004913,308.518707 441.712585,301.510925 456.045410,301.495575 
	C536.696655,301.409332 617.348145,301.412201 697.999390,301.492340 
	C711.349182,301.505615 718.111328,308.580841 718.154602,322.011139 
	C718.214111,340.507233 718.169067,359.003723 718.169128,378.000061 
M602.500000,468.967377 
	C629.056274,468.967377 655.612549,468.967377 681.996277,468.967377 
	C681.996277,424.619781 681.996277,381.074127 681.996277,337.447571 
	C611.543396,337.447571 541.472839,337.447571 471.256714,337.447571 
	C471.256714,381.368469 471.256714,425.045868 471.256714,468.967590 
	C514.909363,468.967590 558.204651,468.967590 602.500000,468.967377 
z"/>
<path fill="#9A1F3A" opacity="1.000000" stroke="none" 
	d="
M602.000000,468.967468 
	C558.204651,468.967590 514.909363,468.967590 471.256714,468.967590 
	C471.256714,425.045868 471.256714,381.368469 471.256714,337.447571 
	C541.472839,337.447571 611.543396,337.447571 681.996277,337.447571 
	C681.996277,381.074127 681.996277,424.619781 681.996277,468.967377 
	C655.612549,468.967377 629.056274,468.967377 602.000000,468.967468 
z"/>
</svg>